<svg version="1" xmlns="http://www.w3.org/2000/svg" width="1309.333" height="1309.333" viewBox="0 0 982.000000 982.000000"><path d="M719.5 2.9c-7.7 3.6-11.5 9.9-11.5 19.4 0 9.9 7.6 15.7 23.5 18.1 14.3 2.2 19.8 3.3 30.2 6.1 37.3 10.2 72.8 32 105.8 65 40.7 40.7 66 87.9 74 138 1.8 11.6 4.4 17.5 9 21.1 7.3 5.5 15.6 5.2 23-.9 7.7-6.3 9-14 5.6-33.9C965.3 155.7 901.7 71.3 823 28.7 787.3 9.4 734.1-3.9 719.5 2.9zM547.5 120.1c-7.9 1.8-17.2 5.2-25 9.2-7.9 4-10.9 6.9-162.4 158.1C190.8 456.5 65.5 582.9 39.7 610.6c-18.9 20.4-29.3 33.3-33 40.7C3.4 658.2.6 676 1.3 686c.7 10.3 3.4 22.5 6.3 28.6 6.6 13.9 19.5 27.6 127.8 135.9C248.9 964 258.5 972.9 271.8 978.1c5.3 2.1 7.4 2.2 29.7 2.3l24 .1 6.5-3.2c11.5-5.8 24.2-16.3 58-48.3 46.4-44 413.8-412.2 446.5-447.6 9.7-10.5 13.9-15.8 16.4-21 7.9-16.1 10.6-29.2 9.8-46.6-.6-13.2-2.3-20.2-7.7-31.4-5.4-11.3-18.2-24.7-121.9-128.4-87.4-87.4-119.9-118.9-127.5-123.7-5.6-3.7-17.1-8-25.6-9.8-7.8-1.6-26.1-1.9-32.5-.4zm24.7 39c7.8 1.7 11.4 3.8 22.4 13.5 13.1 11.6 166.5 164.6 198.7 198.2 13.9 14.5 26.1 28 27.2 30 1.7 3.2 2 5.6 2 17.2 0 19.9 0 20-20.4 41.7-55.4 59-396.6 400.3-460.5 460.5-22.6 21.4-24 22.2-41.1 22.2-14.6.1-16.5-.9-33.5-16.9-20.5-19.4-133.7-132.4-172.4-172.1-41.4-42.5-49.9-51.9-51.7-57-1.7-5.1-1.8-22.6 0-28.6 1.1-4 4.6-8.1 24.5-29 36.1-37.8 163.3-166.3 323.2-326.5 119.9-120.1 146.8-146.6 151.2-148.8 10.5-5.2 20.1-6.6 30.4-4.4z"/><path d="M530.5 276.6c-8.7 1.3-20 3.9-28.5 6.6-41.4 13.3-78.3 46.9-95.9 87.4-8.6 19.8-11.1 32.9-11.8 60.4-.4 18.1-.2 21.7 1.6 30.6 6.5 31.5 20.9 58.3 43.6 80.9 21.1 21.2 44.7 34.7 73 41.9 25.7 6.6 60.8 5.1 86.9-3.6 49.9-16.7 89.6-59.3 102.1-109.7 3.5-14.3 4.6-23.6 4.6-39.4.1-43.4-16.3-81.6-48.2-112.2-21.7-20.8-47-34.3-76.6-40.6-7.6-1.7-14-2.2-28.8-2.4-10.4-.2-20.3-.1-22 .1zm42.8 40.9c13.3 2.3 29.6 9.3 43.2 18.5 52.5 35.5 66.3 109.3 30.3 161.7-6.5 9.5-22.2 25.5-30.3 31-12.5 8.4-31 16.1-45.3 18.9-8.7 1.7-27.9 1.8-38.8.3-15.6-2.1-35.8-10.3-50.1-20.1-22.2-15.2-39.5-41.1-46.5-69.4-3.1-12.6-3.1-38.7-.1-52 8.1-34.6 30.4-63.1 61.8-78.7 10.5-5.2 19.4-8.4 28.5-10.2 9.2-1.9 36.7-1.9 47.3 0z"/><path d="M542 394.3c-12.3 2.8-23.9 12.5-28.1 23.5-3 8-3 20.5 0 28.4 6.2 16 21.4 25.7 38.7 24.6 14.1-.9 26.1-9.6 32.6-23.5 2.7-5.7 3.2-7.9 3.2-14.7.1-9.7-1.9-16.1-7.2-23.1-9.4-12.3-24.9-18.4-39.2-15.2zM284.9 532.4c-11.9 3.4-19.5 9.9-25.2 21.6-2.9 5.8-3.2 7.4-3.2 15.5 0 8.2.3 9.6 3.4 16 7.4 15.1 18 21.8 35.1 21.8 11.9 0 18.7-2.3 26.3-9.3 11.9-10.8 15.5-27.7 9.5-43.7-3-8-12.1-17.1-20.3-20.3-7.2-2.8-18.9-3.5-25.6-1.6zM184.9 630.9c-22.4 7.2-32.9 32-22.7 53.8 3.1 6.6 11.5 14.8 18.5 18 8.2 3.8 19.7 4.3 28.4 1.4 21.5-7.2 32.8-31 23.8-50.1-6.3-13.4-14-20.5-25.4-23.5-7.7-2-15.6-1.8-22.6.4zM404.4 649c-19.8 4.2-32.7 23.8-29.4 44.7 2.1 13.5 9 22.6 21.5 28.5 11.5 5.3 20.5 5.3 32-.1 8.6-4 14.8-9.9 18.8-18 3-6.1 3.2-7.2 3.2-17.1 0-9.9-.2-11-3.3-17.2-4.1-8.3-12-15.8-19.7-18.7-6.4-2.4-17.2-3.4-23.1-2.1zM305.7 747c-16.1 4.1-28.4 19-29.5 35.5-2.2 34.8 38.9 54.8 64.4 31.3 8.6-7.9 12.4-16.8 12.4-28.8 0-16.5-9.2-29.8-24.8-35.9-6.1-2.4-17.1-3.4-22.5-2.1zM721.2 119.9c-3.7 1-9.6 6.1-11.7 10.1-3.7 7.2-2.6 14.4 3.3 21 3.6 4 4.1 4.3 16.3 7 21.9 4.9 36.5 12.1 53.3 26.2 20.4 17.1 34.6 39.3 40.7 63.8 4.7 19 8.7 24.6 19.1 26.5 5.4 1 13.7-3 17.7-8.6 2.8-3.8 3.1-4.9 3.1-11.6 0-29.9-22.6-72.5-52-98-18.1-15.7-43-29.3-62.6-34.3-8.6-2.2-22.5-3.3-27.2-2.1z"/></svg>